# xmcd
#
# Track frame offsets:
# 150
# 6805
# 23472
# 46817
# 74885
# 97265
# 101030
# 113327
# 124415
# 136935
# 153750
# 169120
# 182170
#
# Disc length: 2584 seconds
#
#
# Revision: 6
# Processed by: cddbd v1.5.2PL0 Copyright (c) Steve Scherf et al.
# Submitted via: FreeRIP 2.951 
#
DISCID=a80a160d
DTITLE=Hobo Blues Band - Vadászat I.
DYEAR=1984
DGENRE=Blues
TTITLE0=Prológus/A vadászat alapelvei/
TTITLE1=Hajtók dala
TTITLE2=A vadászok gyülekezõje
TTITLE3=Mesél az erdõ
TTITLE4=Fut a nyúl a mezõn
TTITLE5=A kerítés mögött fegyveresek fáklyával
TTITLE6=A vészbanyák dala/Shakespeare:Machbeth-részlet, ford. Szabó Lõrinc/
TTITLE7=A királyfi vágtat a réten
TTITLE8="Ott fogsz majd sírni, ahol senki se lát"-zokogja az erdész lánya
TTITLE9=A fattyú reménytelen szerelme és halála
TTITLE10=A remete története/Jack Keruac: 211. kórus/
TTITLE11=Számûzött Lovag
TTITLE12=A vadászok kara/Weber: A bûvös vadász - részlet/
EXTD=YEAR: 1984\nby Lajos
EXTT0=
EXTT1=
EXTT2=
EXTT3=
EXTT4=
EXTT5=
EXTT6=
EXTT7=
EXTT8=
EXTT9=
EXTT10=
EXTT11=
EXTT12=
PLAYORDER=
